<svg xmlns="http://www.w3.org/2000/svg" viewBox="0 0 640 800" fill="none">
  <rect width="640" height="800" fill="#E8EFE2" />
  <circle cx="320" cy="270" r="210" fill="#D7E2CF" />
  <path
    d="M203 711C203 629.291 269.291 563 351 563H369C450.709 563 517 629.291 517 711V800H203V711Z"
    fill="#1B2C1B"
  />
  <path
    d="M230 266C230 200.83 282.83 148 348 148C413.17 148 466 200.83 466 266V331C466 396.17 413.17 449 348 449C282.83 449 230 396.17 230 331V266Z"
    fill="#E9C4A5"
  />
  <path
    d="M240 254C240 181.681 298.681 123 371 123H392C442.81 123 484 164.19 484 215V252C462.078 230.484 428.86 217 392.5 217H333L301 186L287 217H240V254Z"
    fill="#2A1F1B"
  />
  <path
    d="M241 276C241 263.297 251.297 253 264 253H275V332H264C251.297 332 241 321.703 241 309V276Z"
    fill="#E9C4A5"
  />
  <path
    d="M421 253H432C444.703 253 455 263.297 455 276V309C455 321.703 444.703 332 432 332H421V253Z"
    fill="#E9C4A5"
  />
  <path
    d="M262 363C279.5 395.5 312 415 348 415C384 415 416.5 395.5 434 363"
    stroke="#C18D68"
    stroke-width="16"
    stroke-linecap="round"
  />
  <circle cx="304" cy="287" r="12" fill="#2A1F1B" />
  <circle cx="388" cy="287" r="12" fill="#2A1F1B" />
  <path
    d="M312 349C327.347 359.261 345.653 359.261 361 349"
    stroke="#A35E5E"
    stroke-width="10"
    stroke-linecap="round"
  />
  <path
    d="M308 469H384V562H308V469Z"
    fill="#E9C4A5"
  />
  <path
    d="M282 560L347 620L411 560"
    stroke="#DDB69A"
    stroke-width="20"
    stroke-linecap="round"
    stroke-linejoin="round"
  />
  <path
    d="M198 782C198 665.468 292.468 571 409 571H413C529.532 571 624 665.468 624 782V800H198V782Z"
    fill="#243924"
    opacity=".14"
  />
</svg>
