<svg xmlns="http://www.w3.org/2000/svg" viewBox="0 0 600 618" fill="none">
  <title>수북농업 로고 락업</title>
  <svg x="78" y="24" width="444" height="406" viewBox="0 0 600 549" aria-hidden="true">
    <g transform="translate(0.000000,549.000000) scale(0.050000,-0.050000)" fill="#a42d2d" stroke="none">
      <path d="M5580 10500 c0 -12 -75 -20 -185 -20 -125 0 -204 -10 -242 -30 -33 -17 -111 -30 -184 -30 -69 0 -129 -9 -132 -20 -4 -12 -52 -26 -107 -33 -55 -7 -105 -20 -112 -30 -6 -10 -47 -24 -90 -30 -43 -7 -87 -19 -98 -27 -11 -9 -49 -22 -85 -29 -36 -8 -65 -22 -65 -33 0 -10 -22 -18 -50 -18 -31 0 -50 -11 -50 -30 0 -20 -20 -30 -60 -30 -40 0 -60 -10 -60 -30 0 -19 -19 -30 -51 -30 -29 0 -65 -13 -82 -30 -16 -16 -48 -30 -70 -30 -21 0 -34 -8 -28 -18 6 -10 -16 -25 -49 -32 -33 -7 -60 -21 -60 -30 0 -10 -25 -20 -55 -24 -31 -3 -53 -17 -50 -31 3 -16 -18 -25 -55 -25 -40 0 -60 -10 -60 -30 0 -16 -13 -30 -30 -30 -16 0 -30 -9 -30 -20 0 -10 -23 -25 -50 -32 -28 -7 -50 -20 -50 -30 0 -10 -14 -18 -31 -18 -16 0 -35 -13 -42 -30 -6 -16 -23 -30 -38 -30 -14 0 -38 -12 -54 -27 -15 -15 -47 -34 -71 -42 -24 -7 -44 -22 -44 -32 0 -11 -13 -19 -30 -19 -16 0 -30 -8 -30 -19 0 -10 -27 -35 -60 -54 -33 -20 -60 -47 -60 -61 0 -14 -14 -26 -31 -26 -16 0 -35 -13 -42 -30 -6 -16 -28 -30 -49 -30 -21 0 -38 -13 -38 -30 0 -16 -13 -30 -30 -30 -16 0 -30 -13 -30 -30 0 -16 -13 -30 -30 -30 -16 0 -30 -13 -30 -30 0 -16 -10 -30 -22 -30 -28 0 -138 -110 -138 -138 0 -12 -13 -22 -30 -22 -16 0 -30 -13 -30 -30 0 -16 -13 -30 -30 -30 -16 0 -30 -13 -30 -30 0 -16 -9 -30 -20 -30 -10 0 -25 -22 -32 -50 -7 -27 -25 -50 -40 -50 -15 0 -28 -13 -28 -30 0 -16 -13 -30 -30 -30 -16 0 -30 -13 -30 -30 0 -16 -9 -30 -20 -30 -11 0 -20 -13 -20 -30 0 -16 -11 -30 -25 -30 -24 0 -57 -48 -86 -125 -8 -19 -26 -35 -41 -35 -16 0 -28 -13 -28 -30 0 -16 -8 -30 -18 -30 -10 0 -23 -22 -30 -50 -7 -27 -21 -50 -31 -50 -10 0 -24 -27 -31 -60 -7 -33 -20 -60 -29 -60 -9 0 -22 -22 -29 -50 -7 -27 -22 -50 -32 -50 -11 0 -20 -27 -20 -60 0 -40 -10 -60 -30 -60 -16 0 -30 -17 -30 -38 0 -21 -9 -42 -20 -45 -11 -4 -25 -30 -30 -57 -11 -58 -73 -187 -95 -197 -8 -3 -15 -33 -15 -65 0 -38 -10 -58 -30 -58 -22 0 -30 -22 -30 -80 0 -58 -8 -80 -30 -80 -20 0 -30 -20 -30 -60 0 -33 -9 -60 -19 -60 -11 0 -25 -34 -31 -75 -7 -41 -21 -90 -31 -109 -10 -19 -24 -71 -31 -117 -9 -56 -19 -74 -31 -56 -11 18 -16 6 -17 -36 0 -95 -23 -188 -42 -175 -10 5 -18 -55 -19 -136 0 -89 -12 -166 -29 -196 -42 -74 -42 -500 0 -500 17 0 30 -13 30 -30 0 -16 14 -30 30 -30 17 0 30 -13 30 -30 0 -24 29 -30 138 -30 76 0 142 -9 145 -19 4 -11 81 -26 172 -33 91 -8 165 -20 165 -28 0 -8 56 -20 125 -27 69 -8 128 -22 132 -33 3 -11 45 -20 92 -20 52 0 96 -12 111 -30 14 -17 58 -30 100 -30 42 0 86 -13 100 -30 15 -19 60 -30 117 -30 51 0 129 -14 173 -29 44 -16 125 -30 180 -30 72 -1 92 -7 70 -21 -23 -15 -15 -19 34 -20 35 0 77 -14 93 -30 17 -17 48 -30 69 -30 22 0 50 -13 64 -30 14 -16 51 -30 83 -30 33 0 63 -13 70 -30 6 -16 33 -30 61 -30 27 0 62 -14 79 -30 16 -16 47 -30 68 -30 22 0 39 -8 39 -18 0 -10 36 -25 80 -32 44 -7 80 -22 80 -32 0 -10 12 -18 28 -18 15 0 38 -13 51 -29 13 -16 44 -32 67 -35 24 -4 42 -18 39 -31 -3 -16 18 -25 56 -25 36 0 56 -8 49 -20 -7 -11 1 -20 17 -20 17 0 42 -12 58 -27 15 -15 47 -34 71 -42 24 -7 44 -22 44 -32 0 -11 14 -19 31 -19 16 0 35 -13 42 -30 6 -16 24 -30 39 -30 15 0 28 -8 28 -19 0 -10 19 -24 42 -32 48 -15 118 -80 118 -109 0 -11 14 -20 30 -20 19 0 30 -19 30 -50 0 -32 11 -50 31 -50 23 0 30 -16 25 -55 l-6 -55 -182 -6 c-144 -4 -187 1 -207 25 -16 19 -59 31 -115 31 -52 0 -101 12 -119 30 -16 16 -61 30 -100 30 -38 0 -83 13 -100 30 -16 16 -52 30 -78 30 -27 0 -49 9 -49 19 0 11 -31 25 -70 32 -38 7 -65 20 -60 29 5 8 -37 19 -95 25 -57 5 -107 20 -111 32 -4 13 -43 23 -87 23 -44 0 -93 13 -110 30 -16 17 -60 30 -96 30 -37 0 -90 12 -118 27 -28 14 -108 28 -177 31 -69 2 -130 12 -136 21 -5 10 -63 23 -127 30 -65 6 -132 20 -150 29 -18 10 -206 24 -418 32 -212 8 -390 23 -396 32 -21 34 -429 22 -429 -12 0 -16 -13 -30 -30 -30 -22 0 -30 -22 -30 -80 0 -44 8 -80 19 -80 10 0 25 -63 32 -140 8 -77 22 -140 32 -140 9 0 17 -23 17 -52 0 -29 13 -80 28 -115 16 -35 33 -98 39 -141 7 -43 20 -84 31 -91 11 -7 22 -46 25 -87 3 -45 15 -74 31 -74 16 0 26 -24 26 -60 0 -40 10 -60 30 -60 20 0 30 -20 30 -61 0 -34 8 -56 18 -50 10 6 25 -16 32 -49 7 -33 21 -60 32 -60 10 0 18 -23 18 -51 0 -27 13 -55 28 -61 16 -6 34 -33 41 -59 6 -27 21 -49 31 -49 11 0 20 -23 20 -51 0 -28 8 -46 19 -40 10 6 24 -8 32 -33 8 -24 27 -56 42 -71 15 -16 27 -41 27 -56 0 -16 9 -29 20 -29 11 0 20 -14 20 -31 0 -16 13 -35 30 -42 16 -6 30 -33 30 -59 0 -29 12 -48 30 -48 17 0 30 -13 30 -30 0 -16 13 -30 30 -30 16 0 29 -7 28 -15 -8 -48 6 -85 32 -85 17 0 30 -9 30 -20 0 -11 36 -56 80 -100 44 -44 80 -89 80 -100 0 -11 14 -20 30 -20 17 0 30 -14 30 -32 0 -34 212 -248 246 -248 12 0 15 -5 9 -12 -14 -14 57 -88 86 -88 11 0 25 -13 32 -30 6 -16 20 -30 30 -30 10 0 39 -21 63 -46 24 -25 67 -56 94 -68 28 -13 37 -24 20 -25 -16 -1 17 -24 76 -52 58 -28 100 -60 93 -70 -6 -10 12 -19 40 -19 32 0 51 -11 51 -30 0 -16 14 -30 30 -30 17 0 30 -8 30 -18 0 -11 27 -25 60 -32 33 -7 55 -22 49 -32 -6 -10 3 -18 20 -18 18 0 37 -13 44 -30 6 -16 33 -30 59 -30 29 0 48 -12 48 -30 0 -20 20 -30 60 -30 40 0 60 -10 60 -30 0 -19 19 -30 50 -30 28 0 50 -9 50 -19 0 -11 34 -25 74 -33 41 -8 87 -26 102 -41 15 -15 44 -27 65 -27 22 0 39 -9 39 -20 0 -11 27 -20 60 -20 40 0 60 -10 60 -30 0 -22 22 -30 80 -30 58 0 80 -8 80 -30 0 -20 20 -30 58 -30 32 0 62 -10 66 -21 4 -12 45 -27 91 -33 46 -6 80 -18 75 -26 -5 -8 28 -20 73 -26 46 -6 88 -19 95 -30 7 -10 57 -23 111 -29 55 -6 103 -21 107 -33 4 -13 68 -22 163 -22 94 0 185 -12 228 -30 101 -42 759 -42 833 0 36 21 123 29 313 29 160 1 266 9 270 21 4 11 68 26 143 33 75 7 126 20 113 27 -13 8 36 21 109 29 73 8 132 22 132 33 0 10 20 18 45 18 71 1 136 23 124 42 -6 10 15 18 47 18 33 0 70 13 84 30 14 16 40 30 59 30 18 0 51 13 72 29 22 17 59 30 84 30 25 1 45 9 45 19 0 11 29 25 65 33 36 7 74 21 85 29 11 8 49 22 85 29 36 8 65 22 65 33 0 10 26 18 59 18 32 0 72 13 88 30 17 16 49 30 72 30 23 0 41 13 41 30 0 17 14 30 30 30 17 0 30 8 30 18 0 10 23 23 50 30 28 7 50 22 50 32 0 11 14 20 31 20 16 0 35 13 41 28 6 16 33 34 59 41 27 6 49 21 49 31 0 11 14 20 30 20 17 0 30 14 30 30 0 17 10 30 23 30 12 0 43 23 69 50 25 28 55 50 66 50 10 0 46 27 79 60 33 33 70 60 81 60 12 0 22 14 22 30 0 17 14 30 30 30 17 0 30 12 30 27 0 14 23 38 50 53 28 15 50 39 50 53 0 15 14 27 30 27 17 0 30 14 30 30 0 17 14 30 30 30 17 0 30 14 30 30 0 17 14 30 30 30 17 0 30 14 30 30 0 17 10 30 22 30 27 0 150 122 143 144 -3 9 9 16 25 16 17 0 30 14 30 30 0 17 14 30 30 30 17 0 30 14 30 30 0 17 8 30 19 30 10 0 24 19 32 43 8 24 35 63 61 87 27 25 48 55 48 67 0 13 13 23 28 23 15 0 33 22 40 50 7 27 22 50 32 50 11 0 20 14 20 30 0 17 8 30 18 30 10 0 39 34 65 75 25 41 52 78 61 82 9 3 16 19 16 35 0 16 14 34 30 41 17 6 30 32 30 57 0 25 14 51 30 57 16 7 30 31 30 54 0 23 14 55 30 72 17 16 30 56 30 88 0 33 8 59 18 59 11 0 25 27 32 60 7 33 20 60 29 60 9 0 21 38 27 85 6 46 21 87 33 91 11 4 21 38 21 76 0 43 11 74 30 81 17 6 30 33 30 60 0 26 14 53 30 60 17 6 30 36 30 70 0 33 8 54 18 48 10 -6 25 16 32 50 8 34 26 86 42 115 65 125 24 344 -65 344 -16 0 -24 9 -17 20 8 12 -29 20 -96 20 -73 0 -117 10 -134 30 -36 44 -669 44 -753 0 -39 -20 -118 -30 -252 -30 -115 0 -195 -8 -195 -20 0 -11 -36 -25 -80 -32 -44 -7 -80 -21 -80 -30 0 -10 -36 -23 -80 -30 -44 -7 -80 -20 -80 -29 0 -9 -27 -22 -60 -29 -33 -7 -60 -21 -60 -32 0 -10 -27 -18 -60 -18 -33 0 -60 -10 -60 -21 0 -12 -9 -16 -20 -9 -11 7 -20 3 -20 -9 0 -11 -28 -21 -61 -21 -34 0 -75 -14 -92 -30 -16 -16 -64 -30 -107 -30 -42 0 -80 -9 -84 -21 -3 -11 -58 -26 -121 -33 -63 -6 -110 -18 -105 -26 5 -8 -37 -19 -95 -25 -57 -5 -107 -20 -111 -32 -4 -13 -34 -23 -66 -23 -34 0 -64 -13 -71 -30 -7 -18 -37 -30 -77 -30 -40 0 -70 -12 -77 -30 -7 -16 -34 -30 -61 -30 -27 0 -52 -9 -55 -19 -17 -47 -170 -47 -214 0 -23 25 -37 53 -31 62 6 9 1 17 -11 17 -11 0 -21 14 -21 30 0 17 8 30 18 30 10 0 23 23 30 50 7 28 22 50 32 50 11 0 20 14 20 30 0 17 14 30 30 30 17 0 30 14 30 30 0 18 19 30 48 30 26 0 53 14 59 30 7 17 26 30 42 30 17 0 31 9 31 20 0 10 23 25 50 32 28 7 50 20 50 30 0 10 14 18 30 18 17 0 30 13 30 28 0 15 23 33 50 40 28 7 50 22 50 32 0 11 18 20 40 20 22 0 40 13 40 30 0 19 19 30 50 30 31 0 50 11 50 30 0 17 14 30 30 30 17 0 30 7 30 15 0 8 50 37 110 64 61 27 110 56 110 65 0 9 26 16 58 16 31 0 68 14 82 30 14 17 51 30 82 30 38 0 58 10 58 30 0 20 20 30 60 30 33 0 60 9 60 20 0 11 36 25 80 32 44 7 80 20 80 29 0 9 27 22 60 29 33 7 60 20 60 29 0 9 47 20 104 26 57 5 108 20 112 32 4 13 43 23 87 23 44 0 74 8 68 18 -16 26 39 42 139 42 48 0 90 9 94 21 3 11 58 26 121 33 63 6 115 18 115 26 0 8 47 19 104 25 57 5 108 20 112 32 4 13 41 23 83 23 116 0 209 22 178 43 -16 9 92 17 251 17 268 0 279 2 323 49 24 27 50 43 57 36 7 -6 12 73 12 177 0 109 -8 177 -17 161 -23 -36 -42 87 -43 272 0 80 -8 145 -18 145 -10 0 -24 54 -32 120 -8 66 -21 120 -29 120 -9 0 -22 36 -29 80 -7 44 -21 80 -32 80 -11 0 -20 26 -20 59 0 32 -13 72 -30 88 -16 17 -30 61 -30 99 0 44 -11 74 -30 81 -16 7 -30 35 -30 64 0 28 -13 65 -30 82 -16 16 -30 54 -30 83 -1 37 -6 46 -17 27 -12 -18 -22 0 -30 55 -8 45 -22 82 -33 82 -11 0 -20 17 -20 39 0 21 -13 52 -30 68 -16 17 -30 48 -30 69 0 22 -13 45 -30 51 -16 7 -30 30 -30 53 0 23 -21 62 -47 86 -26 24 -54 64 -62 89 -7 25 -22 45 -32 45 -11 0 -19 18 -19 40 0 22 -13 40 -30 40 -19 0 -30 19 -30 50 0 31 -11 50 -30 50 -17 0 -30 18 -30 41 0 22 -22 62 -50 87 -27 26 -50 53 -50 60 0 18 -86 140 -105 149 -8 3 -15 19 -15 35 0 15 -13 28 -30 28 -16 0 -30 14 -30 30 0 17 -13 30 -30 30 -16 0 -30 10 -30 21 0 28 -51 79 -79 79 -11 0 -21 9 -21 20 0 26 -74 100 -100 100 -11 0 -20 10 -20 22 0 28 -170 198 -198 198 -12 0 -22 14 -22 30 0 17 -13 30 -30 30 -16 0 -30 14 -30 30 0 17 -10 30 -23 30 -12 0 -43 23 -69 50 -25 28 -53 50 -60 50 -8 0 -29 13 -46 29 -131 122 -165 151 -175 151 -7 0 -33 23 -59 50 -25 28 -60 50 -78 50 -17 0 -36 14 -43 30 -6 17 -24 30 -39 30 -15 0 -28 9 -28 20 0 10 -22 25 -49 31 -26 7 -53 25 -59 41 -6 15 -25 28 -41 28 -17 0 -31 8 -31 19 0 10 -20 25 -45 32 -25 8 -50 23 -57 33 -6 10 -31 19 -55 21 -24 2 -43 11 -43 20 0 10 -27 26 -60 38 -33 12 -60 29 -60 39 0 10 -23 18 -51 18 -29 0 -65 14 -82 30 -16 17 -56 30 -88 30 -33 0 -59 8 -59 18 0 11 -27 25 -60 32 -33 7 -60 20 -60 29 0 9 -49 23 -110 30 -60 8 -110 22 -110 32 0 11 -40 19 -89 19 -52 0 -101 12 -118 30 -21 21 -71 30 -160 30 -86 0 -132 8 -138 25 -6 17 -75 27 -227 32 -120 3 -227 15 -237 25 -27 25 -831 24 -831 -2z m800 -277 c0 -9 119 -22 265 -29 158 -7 267 -20 271 -33 4 -11 56 -21 116 -21 79 0 112 -8 121 -30 8 -21 41 -30 111 -30 61 0 110 -11 129 -30 16 -16 56 -30 87 -30 32 0 63 -9 70 -20 7 -11 32 -20 56 -20 24 0 68 -13 98 -28 29 -16 81 -34 115 -42 34 -7 56 -22 50 -32 -6 -10 7 -18 28 -18 22 0 54 -13 70 -30 17 -16 44 -30 62 -30 17 0 31 -8 31 -19 0 -10 20 -25 45 -32 25 -8 64 -35 87 -59 23 -25 61 -51 85 -59 24 -8 43 -22 43 -32 0 -11 14 -19 30 -19 17 0 30 -11 30 -25 0 -14 36 -42 80 -63 44 -21 80 -46 80 -56 0 -9 16 -23 35 -30 19 -8 60 -39 92 -70 31 -31 69 -56 86 -56 16 0 24 -9 17 -20 -7 -11 6 -20 29 -20 23 0 41 -13 41 -30 0 -16 14 -30 30 -30 17 0 30 -13 30 -30 0 -16 10 -30 23 -30 13 0 70 -49 128 -110 58 -60 119 -110 137 -110 18 0 32 -13 32 -28 0 -16 27 -56 60 -89 33 -33 60 -70 60 -81 0 -12 14 -22 30 -22 17 0 30 -13 30 -30 0 -16 14 -30 30 -30 17 0 30 -10 30 -23 0 -12 21 -42 48 -67 26 -24 53 -63 61 -87 8 -24 22 -43 32 -43 11 0 19 -13 19 -30 0 -16 14 -30 30 -30 17 0 30 -13 30 -30 0 -16 9 -30 20 -30 10 0 25 -22 31 -49 7 -26 25 -53 41 -59 15 -6 28 -25 28 -41 0 -17 9 -31 20 -31 11 0 20 -18 20 -41 0 -22 13 -45 28 -51 16 -6 34 -33 41 -59 6 -27 21 -49 31 -49 11 0 20 -14 20 -31 0 -16 14 -35 30 -42 17 -6 30 -28 30 -48 0 -39 54 -150 95 -195 14 -15 25 -40 25 -55 0 -16 9 -29 20 -29 11 0 25 -36 32 -80 7 -44 21 -80 31 -80 9 0 17 -54 17 -120 l0 -120 -60 0 c-33 0 -60 -8 -60 -17 0 -10 -52 -27 -115 -39 -63 -12 -160 -31 -215 -44 -55 -12 -116 -23 -135 -25 -19 -2 -35 -11 -35 -19 0 -9 -40 -16 -89 -16 -52 0 -101 -12 -118 -30 -17 -16 -62 -30 -102 -30 -50 0 -71 -9 -71 -30 0 -19 -19 -30 -51 -30 -29 0 -65 -13 -82 -30 -16 -16 -47 -30 -68 -30 -22 0 -39 -8 -39 -18 0 -11 -27 -25 -60 -32 -33 -7 -55 -22 -49 -32 6 -10 -14 -18 -46 -18 -32 0 -75 -13 -96 -29 -22 -17 -59 -30 -84 -30 -26 -1 -45 -13 -45 -31 0 -22 -22 -30 -81 -30 -45 0 -76 -8 -70 -18 6 -10 -16 -28 -49 -39 -33 -12 -60 -15 -61 -7 0 8 -9 -2 -21 -21 -11 -19 -33 -35 -49 -35 -16 0 -29 -9 -29 -20 0 -11 -22 -20 -50 -20 -31 0 -50 -11 -50 -30 0 -20 -20 -30 -60 -30 -33 0 -60 -9 -60 -20 0 -10 -25 -25 -55 -33 -30 -8 -67 -26 -81 -40 -15 -15 -49 -27 -75 -27 -27 0 -49 -8 -49 -18 0 -10 -25 -24 -55 -31 -30 -8 -59 -20 -65 -28 -37 -48 -203 -96 -300 -86 -50 5 -81 104 -93 303 -7 105 -19 199 -28 210 -8 11 -22 121 -30 245 -8 123 -21 220 -29 215 -8 -5 -21 54 -29 130 -7 77 -22 140 -32 140 -11 0 -19 62 -19 139 0 96 -9 147 -30 168 -17 17 -30 66 -30 112 0 51 -9 81 -25 81 -19 1 -18 5 2 18 21 13 20 19 -5 29 -22 8 -32 37 -32 92 0 45 -9 81 -20 81 -11 0 -25 36 -32 80 -7 44 -21 80 -31 80 -9 0 -17 17 -17 39 0 21 -13 52 -30 68 -16 17 -30 52 -30 79 0 28 -13 55 -30 61 -16 7 -30 34 -30 61 0 27 -13 63 -30 79 -16 17 -30 44 -30 62 0 17 -9 31 -20 31 -10 0 -25 23 -32 50 -7 28 -19 50 -28 50 -9 0 -21 23 -28 50 -7 28 -21 50 -31 50 -10 0 -24 27 -31 60 -7 33 -21 60 -32 60 -10 0 -18 14 -18 30 0 17 -13 30 -30 30 -18 0 -30 19 -30 48 0 26 -13 53 -30 59 -16 7 -30 29 -30 50 0 21 -13 44 -30 50 -16 7 -30 26 -30 42 0 17 -9 31 -20 31 -11 0 -20 14 -20 30 0 17 -14 30 -31 30 -17 0 -27 8 -21 17 6 9 -7 36 -29 59 -21 23 -39 52 -39 63 0 12 -10 21 -21 21 -12 0 -35 14 -52 30 -16 17 -52 30 -80 30 -28 0 -44 9 -37 20 7 12 -20 20 -69 20 -44 0 -81 -9 -81 -20 0 -11 -9 -20 -20 -20 -22 0 -100 -72 -100 -93 0 -7 -22 -33 -50 -59 -27 -25 -50 -65 -50 -87 0 -23 -11 -41 -25 -41 -25 0 -109 -170 -100 -203 3 -9 -4 -17 -14 -17 -19 0 -67 -92 -91 -175 -7 -25 -21 -45 -31 -45 -11 0 -19 -17 -19 -39 0 -21 -13 -52 -30 -68 -16 -17 -30 -53 -30 -82 0 -30 -10 -49 -25 -46 -15 3 -28 -21 -31 -60 -4 -36 -14 -65 -23 -65 -9 0 -22 -36 -29 -80 -7 -44 -21 -80 -32 -80 -11 0 -20 -19 -20 -42 0 -23 -13 -66 -29 -95 -16 -29 -34 -87 -41 -128 -6 -41 -20 -75 -31 -75 -10 0 -19 -49 -19 -108 0 -60 -10 -112 -21 -116 -12 -4 -26 -47 -32 -96 -5 -50 -18 -108 -29 -130 -22 -48 -53 -235 -79 -479 -11 -98 -27 -184 -36 -190 -10 -6 -22 -74 -28 -150 -6 -77 -21 -143 -33 -147 -13 -4 -22 -66 -22 -157 0 -107 -9 -159 -30 -180 -18 -17 -30 -66 -30 -118 0 -66 -8 -89 -30 -89 -16 0 -30 -13 -30 -30 0 -34 -31 -40 -50 -10 -7 12 -21 15 -31 9 -11 -6 -19 -2 -19 10 0 11 -13 21 -30 21 -16 0 -30 8 -30 18 0 10 -34 39 -75 64 -41 25 -80 52 -85 60 -6 8 -35 21 -65 29 -30 7 -55 21 -55 31 0 10 -12 18 -28 18 -15 0 -38 14 -52 30 -14 17 -50 30 -80 30 -31 0 -61 13 -67 30 -7 18 -37 30 -72 30 -34 0 -61 8 -61 18 0 10 -31 23 -70 31 -38 7 -70 21 -70 32 0 10 -17 19 -39 19 -21 0 -52 14 -68 30 -17 17 -63 30 -102 30 -46 0 -76 11 -84 30 -7 19 -38 30 -87 30 -49 0 -80 11 -87 30 -7 17 -35 30 -62 30 -28 0 -51 9 -51 19 0 11 -45 26 -100 33 -55 7 -100 21 -100 31 0 9 -26 17 -57 17 -106 0 -242 25 -231 43 6 9 -26 17 -71 17 -55 0 -86 10 -94 30 -8 21 -41 30 -117 30 -76 0 -109 9 -117 30 -9 22 -42 30 -122 30 -61 0 -111 8 -111 19 0 10 -50 24 -111 32 -61 8 -106 19 -100 25 6 6 -8 24 -31 40 -49 34 -51 323 -2 339 13 5 24 43 24 87 0 56 8 78 30 78 17 0 30 18 30 41 0 22 22 61 49 86 26 25 54 69 62 99 7 30 21 54 31 54 10 0 18 14 18 30 0 17 14 30 30 30 17 0 29 7 28 15 -8 48 6 85 32 85 17 0 30 14 30 30 0 17 9 30 20 30 11 0 20 12 20 26 0 24 24 61 105 158 19 23 35 54 35 69 0 15 9 27 20 27 11 0 20 14 20 30 0 17 14 30 30 30 19 0 30 19 30 50 0 31 11 50 30 50 17 0 30 9 30 21 0 11 23 42 50 67 28 26 50 57 50 69 0 13 14 23 30 23 17 0 30 14 30 30 0 17 14 30 30 30 17 0 30 10 30 21 0 23 27 54 257 289 81 82 155 145 165 139 10 -6 18 3 18 20 0 17 13 31 28 31 15 0 33 14 39 30 7 17 26 30 44 30 17 0 26 9 19 20 -7 11 1 20 17 20 17 0 42 12 57 26 14 15 64 44 110 65 47 22 85 50 85 64 1 14 23 25 49 25 26 0 53 14 59 30 7 17 26 30 42 30 17 0 31 8 31 18 0 10 22 23 50 30 27 7 50 21 50 31 0 10 27 24 60 31 33 7 60 21 60 32 0 10 14 18 30 18 17 0 30 14 30 30 0 20 20 30 60 30 33 0 60 9 60 20 0 10 23 25 50 32 28 7 50 19 50 28 0 9 25 22 55 29 30 8 59 22 65 32 6 9 42 22 81 29 38 7 72 21 76 31 3 10 27 19 53 19 26 0 61 14 77 30 17 17 56 30 87 31 31 0 73 13 95 30 22 17 82 29 143 29 58 0 108 9 111 19 4 11 131 26 282 33 151 8 275 22 275 31 0 9 194 17 430 17 237 0 430 -8 430 -17z"/>
    </g>
  </svg>
  <text
    x="300"
    y="528"
    fill="#111111"
    font-family="'AppleMyungjo', 'Nanum Myeongjo', 'Noto Serif KR', serif"
    font-size="76"
    font-weight="700"
    letter-spacing="-3"
    text-anchor="middle"
    textLength="392"
    lengthAdjust="spacingAndGlyphs"
  >
    농업회사법인
  </text>
</svg>
